<?xml version="1.0" standalone="no"?><!DOCTYPE svg PUBLIC "-//W3C//DTD SVG 1.1//EN" "http://www.w3.org/Graphics/SVG/1.1/DTD/svg11.dtd"><svg t="1528558920177" class="icon" style="" viewBox="0 0 1024 1024" version="1.1" xmlns="http://www.w3.org/2000/svg" p-id="1584" xmlns:xlink="http://www.w3.org/1999/xlink" width="200" height="200"><defs><style type="text/css"></style></defs><path d="M704.232727 479.976727h-160.116363V320a32.116364 32.116364 0 0 0-64.232728 0v159.976727H319.767273a32.023273 32.023273 0 0 0 0 64h160.116363v160.023273a32.116364 32.116364 0 0 0 64.232728 0v-160.023273h160.116363a30.021818 30.021818 0 0 0 31.650909-31.976727 31.837091 31.837091 0 0 0-31.650909-32.023273zM512 0a512 512 0 1 0 512 512A513.489455 513.489455 0 0 0 512 0z m0 960A448 448 0 1 1 959.767273 512 449.210182 449.210182 0 0 1 512 960z m0 0" p-id="1585" fill="#515151"></path></svg>