<?xml version="1.0" standalone="no"?><!DOCTYPE svg PUBLIC "-//W3C//DTD SVG 1.1//EN" "http://www.w3.org/Graphics/SVG/1.1/DTD/svg11.dtd"><svg t="1528601230655" class="icon" style="" viewBox="0 0 1024 1024" version="1.1" xmlns="http://www.w3.org/2000/svg" p-id="1952" xmlns:xlink="http://www.w3.org/1999/xlink" width="200" height="200"><defs><style type="text/css"></style></defs><path d="M801.222 764.063c3.016-3.352 6.128-6.654 9-10.149 4.021-4.931 7.612-10.148 11.394-15.225 3.638-4.978 7.42-9.766 10.868-14.935 2.631-3.926 4.929-8.092 7.372-12.162 4.021-6.558 8.138-13.067 11.775-19.866 1.677-3.158 3.065-6.511 4.692-9.67 3.925-7.852 7.803-15.701 11.203-23.841 1.195-3.015 2.153-6.174 3.351-9.19 3.207-8.426 6.462-16.805 9.048-25.469 1.626-5.218 2.729-10.678 4.115-15.943 1.676-6.559 3.64-12.973 4.98-19.675 8.042-39.159 9.623-79.947 4.788-120.974-0.192-1.676-0.479-3.351-0.768-5.075a370.254 370.254 0 0 0-7.229-38.92l-0.431-2.155h-0.097c-1.771-7.228-3.302-14.553-5.505-21.781-7.79-25.261-34.578-39.427-59.841-31.645-22.651 7.177-36.476 30.031-32.313 53.425h-1.581c4.549 13.644 7.995 27.719 10.533 42.177l0.813 5.314a280.409 280.409 0 0 1-2.104 100.532c-1.055 5.122-2.538 10.1-3.831 15.127-1.006 3.831-1.868 7.755-3.017 11.537-2.058 6.751-4.595 13.262-7.085 19.772-0.765 2.06-1.388 4.164-2.25 6.177a270.95 270.95 0 0 1-8.712 18.525c-1.102 2.154-2.059 4.501-3.16 6.655a311.783 311.783 0 0 1-9 15.128c-1.867 3.016-3.494 6.08-5.41 8.953-2.632 3.878-5.504 7.563-8.281 11.345-2.825 3.734-5.458 7.613-8.474 11.202-2.154 2.729-4.596 5.122-6.846 7.755-3.926 4.405-7.756 8.905-11.92 13.07-1.675 1.675-3.495 3.207-5.267 4.884a280.367 280.367 0 0 1-15.272 13.931c-1.436 1.197-3.062 2.298-4.595 3.446a259.758 259.758 0 0 1-17.521 13.117c-2.489 1.675-5.124 3.111-7.661 4.74-5.218 3.254-10.483 6.653-15.892 9.623a289.298 289.298 0 0 1-80.667 29.25c-5.361 1.1-10.962 1.77-16.468 2.538-3.734 0.573-7.563 1.291-11.298 1.675a276.508 276.508 0 0 1-86.123-4.166c-5.123-1.053-10.198-2.537-15.225-3.878-3.829-1.006-7.707-1.771-11.489-2.921-6.653-2.057-13.069-4.547-19.579-7.037-2.106-0.814-4.261-1.436-6.368-2.298a295.58 295.58 0 0 1-18.527-8.713c-2.202-1.101-4.452-2.058-6.606-3.159-5.313-2.872-10.388-6.079-15.51-9.192-2.825-1.722-5.745-3.303-8.522-5.169-4.021-2.683-7.85-5.697-11.776-8.617-3.638-2.681-7.325-5.219-10.867-8.092-2.824-2.297-5.41-4.835-8.139-7.229-4.308-3.781-8.665-7.469-12.734-11.487-1.868-1.869-3.591-3.976-5.41-5.891-4.595-4.787-9.095-9.575-13.308-14.697-1.531-1.817-2.92-3.828-4.356-5.742-4.213-5.364-8.426-10.725-12.255-16.326-2.059-3.064-3.878-6.415-5.84-9.525-2.92-4.692-5.937-9.239-8.569-14.074a287.432 287.432 0 0 1-29.298-80.763c-1.053-5.411-1.724-10.964-2.49-16.421-0.527-3.782-1.292-7.612-1.723-11.396a288.394 288.394 0 0 1 4.26-86.073c1.102-5.458 2.729-10.868 4.117-16.277 0.958-3.447 1.676-6.989 2.729-10.436 2.058-6.847 4.595-13.453 7.181-20.059 0.766-1.963 1.293-4.021 2.155-5.937 2.633-6.415 5.697-12.59 8.856-18.766 1.054-2.059 1.915-4.261 3.016-6.318 2.873-5.363 6.08-10.532 9.239-15.655 1.723-2.777 3.256-5.698 5.122-8.378 2.682-4.069 5.697-7.947 8.618-11.873 2.68-3.589 5.217-7.275 8.042-10.771 2.346-2.825 4.883-5.41 7.229-8.138 3.783-4.261 7.517-8.666 11.538-12.735 1.818-1.819 3.829-3.495 5.696-5.266 4.931-4.596 9.765-9.239 14.937-13.5 1.723-1.436 3.637-2.729 5.361-4.07 5.458-4.308 10.962-8.617 16.755-12.495 2.968-2.011 6.08-3.687 9.096-5.602 4.787-3.016 9.431-6.079 14.409-8.76a289.462 289.462 0 0 1 52.995-22.308c14.027-4.309 28.149-7.181 42.272-9.24a285.537 285.537 0 0 1 48.877-3.208l-0.478-1.531c23.622-2.842 41.457-22.788 41.648-46.581 0-26.44-21.433-47.873-47.873-47.873-7.563 0-14.983 0.669-22.403 1.101l-0.048-0.096c-0.623 0-1.293 0.144-1.963 0.191a392.752 392.752 0 0 0-39.974 4.595c-1.484 0.24-3.017 0.431-4.5 0.719a380.694 380.694 0 0 0-114.462 40.165c-5.889 3.208-11.443 6.942-17.14 10.436-4.788 2.921-9.622 5.602-14.266 8.713-7.708 5.17-14.937 10.915-22.165 16.612-2.345 1.867-4.883 3.543-7.18 5.458a381.04 381.04 0 0 0-20.107 18.239c-2.346 2.298-4.932 4.404-7.325 6.75a369.212 369.212 0 0 0-15.941 17.617c-2.969 3.351-6.128 6.606-9 10.149-4.021 4.883-7.66 10.101-11.394 15.175-3.687 4.979-7.468 9.814-10.915 14.937-2.586 3.924-4.836 7.994-7.277 11.968-4.07 6.654-8.187 13.212-11.873 20.106-1.627 3.016-2.968 6.224-4.5 9.287a412.137 412.137 0 0 0-11.346 24.224c-1.197 2.92-2.106 5.937-3.255 8.857-3.255 8.521-6.559 17.09-9.24 25.851-1.532 4.883-2.537 9.958-3.83 14.937-1.819 6.846-3.83 13.645-5.218 20.633a380.213 380.213 0 0 0-5.745 114.606c0.67 6.896 1.963 13.551 3.016 20.347 0.862 5.552 1.437 11.154 2.537 16.707a380.571 380.571 0 0 0 39.208 108.097c3.113 5.697 6.655 11.012 10.006 16.563 3.016 4.98 5.84 10.008 9.096 14.842 5.075 7.517 10.676 14.698 16.277 21.831 1.963 2.489 3.733 5.121 5.792 7.564 5.746 6.939 11.921 13.45 18.097 19.914 2.346 2.44 4.5 5.026 6.941 7.42 5.602 5.553 11.586 10.772 17.521 15.942 3.4 3.015 6.702 6.174 10.149 9.047 4.979 4.021 10.149 7.563 15.223 11.346 4.98 3.688 9.815 7.468 14.984 10.917 3.926 2.632 8.09 4.882 12.112 7.37 6.606 4.022 13.069 8.14 19.915 11.777 3.112 1.677 6.464 3.016 9.671 4.644 7.851 3.925 15.702 7.805 23.84 11.203 3.016 1.245 6.176 2.201 9.144 3.351 8.426 3.207 16.852 6.51 25.516 9.095 5.218 1.581 10.628 2.729 15.942 4.117 6.511 1.676 12.974 3.591 19.627 4.979a380.464 380.464 0 0 0 114.655 5.696c6.8-0.669 13.309-1.963 19.964-2.968 5.698-0.909 11.395-1.436 17.091-2.633a379.054 379.054 0 0 0 108-39.207c5.696-3.064 11.012-6.655 16.564-10.007 4.979-3.063 10.054-5.888 14.889-9.095 7.517-5.074 14.697-10.724 21.782-16.325 2.49-1.962 5.122-3.732 7.563-5.792a323.947 323.947 0 0 0 19.917-18.096c2.488-2.297 5.025-4.502 7.467-6.895 5.653-5.595 10.776-11.577 16.042-17.561z" fill="#515151" p-id="1953"></path></svg>