<?xml version="1.0" standalone="no"?><!DOCTYPE svg PUBLIC "-//W3C//DTD SVG 1.1//EN" "http://www.w3.org/Graphics/SVG/1.1/DTD/svg11.dtd"><svg t="1528558955711" class="icon" style="" viewBox="0 0 1088 1024" version="1.1" xmlns="http://www.w3.org/2000/svg" p-id="2297" xmlns:xlink="http://www.w3.org/1999/xlink" width="212.5" height="200"><defs><style type="text/css"></style></defs><path d="M593.472 552.8c22.048 0 39.904-18.24 39.904-40.768s-17.856-40.8-39.904-40.8h-204.608c-22.048 0-39.904 18.272-39.904 40.8s17.856 40.768 39.904 40.768h204.608z m121.344 0.032l10.4-0.096c22.048-0.16 39.776-18.56 39.616-41.088a40.32 40.32 0 0 0-39.904-40.48h-0.32l-10.4 0.064a40.384 40.384 0 0 0-39.616 41.088c0.16 22.432 17.984 40.512 39.904 40.512h0.32z m354.432-75.648c-9.376-26.816-30.656-47.552-56-59.456L140.96 9.248a97.088 97.088 0 0 0-41.44-9.28C44.576-0.032 0.032 45.472 0.032 101.6v230.272c0 41.76 24.96 79.264 62.976 94.56l3.648 1.472 3.776 1.088 161.184 46.912c25.504 7.424 50.88-12.128 50.88-39.232 0-18.24-11.84-34.24-28.992-39.232l-161.152-46.88a20.064 20.064 0 0 1-12.448-18.688V101.632c0-11.584 9.28-20.096 19.648-20.096 2.72 0 5.472 0.576 8.192 1.856l876.224 410.304c15.296 7.136 15.296 29.344 0 36.512L107.744 940.512a19.52 19.52 0 0 1-8.192 1.856 19.904 19.904 0 0 1-19.648-20.096v-230.24c0-8.256 4.928-15.648 12.448-18.656l161.152-46.912a40.64 40.64 0 0 0 28.992-39.232c0-27.072-25.376-46.656-50.88-39.232l-164.928 48-3.648 1.472C25.024 612.8 0.032 650.304 0.032 692.064v224c0 56 44.64 107.872 99.456 107.904 14.4 0 28.352-3.136 41.472-9.28l876.224-410.336c45.44-21.28 70.176-75.392 52.064-127.2z" p-id="2298" fill="#515151"></path></svg>