<?xml version="1.0" standalone="no"?><!DOCTYPE svg PUBLIC "-//W3C//DTD SVG 1.1//EN" "http://www.w3.org/Graphics/SVG/1.1/DTD/svg11.dtd"><svg t="1527558354150" class="icon" style="" viewBox="0 0 1024 1024" version="1.1" xmlns="http://www.w3.org/2000/svg" p-id="3444" xmlns:xlink="http://www.w3.org/1999/xlink" width="200" height="200"><defs><style type="text/css"></style></defs><path d="M793.6 256h-130.327273l102.4-139.636364c13.963636-18.618182 9.309091-46.545455-9.309091-62.836363-18.618182-13.963636-46.545455-9.309091-62.836363 9.309091l-139.636364 190.836363h-55.854545l-209.454546-130.327272c-20.945455-11.636364-48.872727-6.981818-60.509091 13.963636-9.309091 13.963636-9.309091 25.6-6.981818 37.236364 2.327273 11.636364 9.309091 20.945455 18.618182 27.927272l88.436364 53.527273H230.4C167.563636 256 116.363636 307.2 116.363636 370.036364v353.745454C116.363636 786.618182 167.563636 837.818182 230.4 837.818182h563.2c62.836364 0 114.036364-51.2 114.036364-114.036364V370.036364c0-62.836364-51.2-114.036364-114.036364-114.036364zM232.727273 488.727273l-2.327273-11.636364c-2.327273-16.290909 6.981818-32.581818 23.272727-34.909091l125.672728-23.272727c16.290909-2.327273 32.581818 6.981818 34.90909 23.272727l2.327273 11.636364c2.327273 16.290909-6.981818 32.581818-23.272727 34.909091l-125.672727 23.272727c-16.290909 2.327273-32.581818-6.981818-34.909091-23.272727z m365.381818 176.872727c-11.636364 6.981818-23.272727 11.636364-41.890909 11.636364-13.963636 0-27.927273-6.981818-39.563637-20.945455-2.327273-2.327273-4.654545-2.327273-6.981818 0-27.927273 27.927273-72.145455 25.6-97.745454-4.654545-11.636364-16.290909-18.618182-32.581818-18.618182-53.527273 0-11.636364 9.309091-18.618182 18.618182-18.618182s18.618182 6.981818 18.618182 18.618182c0 9.309091 2.327273 20.945455 9.30909 27.927273 9.309091 13.963636 25.6 16.290909 37.236364 4.654545 9.309091-6.981818 13.963636-16.290909 13.963636-27.927273v-4.654545c0-20.945455 39.563636-20.945455 39.563637 0 0 9.309091 2.327273 18.618182 9.309091 27.927273 13.963636 16.290909 32.581818 16.290909 44.218182-2.327273 4.654545-6.981818 6.981818-16.290909 6.981818-25.6 0-9.309091 6.981818-16.290909 13.963636-18.618182 6.981818-2.327273 16.290909 2.327273 20.945455 9.309091 2.327273 2.327273 2.327273 4.654545 2.327272 9.309091 2.327273 27.927273-6.981818 51.2-30.254545 67.490909z m195.490909-188.509091l-2.327273 11.636364c-2.327273 16.290909-18.618182 27.927273-34.909091 23.272727l-123.345454-23.272727c-16.290909-2.327273-27.927273-18.618182-23.272727-34.909091l2.327272-11.636364c2.327273-16.290909 18.618182-27.927273 34.909091-23.272727l123.345455 23.272727c16.290909 2.327273 25.6 18.618182 23.272727 34.909091z" p-id="3445"></path></svg>